# xmcd
# 
# Track frame offsets:
#     183
#     6320
#     14720
#     26945
#     35983
#     45395
#     59270
#     73445
#     83120
#     94145
#     101195
#     113420
#     121220
#     129920
#     140795
#     151595
#     161870
#     175370
#     187520
#     194795
#     203945
#     216620
# 
# Disc length: 3053
# 
# Revision: 2
# Processed by: cddbd v1.5.2PL0 Copyright (c) Steve Scherf et al.
# Submitted via: fre:ac v1.0.31
# 
DISCID=4b0beb16
DTITLE=Various Artist - Zünd an es Liacht - Tiroler Volksweisen zur Weihnacht
DYEAR=1989
DGENRE=Christmas
TTITLE0=Königswiesener Stubenmusik - Festlicher Auftakt
TTITLE1=Osttiroler Viergesang - Im Wald is so staad
TTITLE2=Königswiesener Stubenmusik - Menuett aus St. Gallen
TTITLE3=Osttiroler Viergesang - Ganz schön bist du, Maria
TTITLE4=Katja Holler (Harfe) - Salzburger Tänzchen
TTITLE5=Angelika Kreuzmayr - Walzer (Dem Schindlschneider Sepp seina)
TTITLE6=Osttiroler Viergesang - Zünd an es Liacht
TTITLE7=Königswiesener Stubenmusik - Landler
TTITLE8=Angelika Kreuzmayr - Buchsbaum Boarischer
TTITLE9=Osttiroler Viergesang - Schean stiill fallt da Schnea
TTITLE10=Katja Holler (Harfe) - Mineth aus Chrobold im Böhmerwald
TTITLE11=Königswiesener Stubenmusik - Kleinarler Walzer
TTITLE12=Osttiroler Viergesang - Was sagg dön dar Wind
TTITLE13=Königswiesener Stubenmusik - Zwei Menuette aus Klausen
TTITLE14=Angelika Kreuzmayr - Haslauer Boarischer
TTITLE15=Osttiroler Viergesang - Ihr Brüder, steht's gschwind auf
TTITLE16=Königswiesener Stubenmusik - Weber-Heiß Boarischer
TTITLE17=Katja Holler (Harfe) - Sachranger Menuett
TTITLE18=Osttiroler Viergesang - Andachtsjodler
TTITLE19=Königswiesener Stubenmusik - Aus der Brucker Weihnachtsmettn
TTITLE20=Osttiroler Viergesang - Stöffl, Jaggl, Loisl, Michl
TTITLE21=Königswiesener Stubenmusik - Thernberger Stückln
EXTD=
EXTT0=
EXTT1=
EXTT2=
EXTT3=
EXTT4=
EXTT5=
EXTT6=
EXTT7=
EXTT8=
EXTT9=
EXTT10=
EXTT11=
EXTT12=
EXTT13=
EXTT14=
EXTT15=
EXTT16=
EXTT17=
EXTT18=
EXTT19=
EXTT20=
EXTT21=
PLAYORDER=
